<mxfile host="app.diagrams.net" modified="2024-01-14T07:14:10.965Z" agent="Mozilla/5.0 (Macintosh; Intel Mac OS X 10_15_7) AppleWebKit/537.36 (KHTML, like Gecko) Chrome/120.0.0.0 Safari/537.36" version="22.1.18" etag="Cr-IEFtSQzQgcJzSt65P" type="github">
  <diagram name="Page-1" id="AzZEtqo4cy-Y0uxe8lHY">
    <mxGraphModel>
      <root>
        <mxCell id="0" />
        <mxCell id="1" parent="0" />
      </root>
    </mxGraphModel>
  </diagram>
</mxfile>
